<svg width="1001" height="205" viewBox="0 0 1001 205" fill="none" xmlns="http://www.w3.org/2000/svg">
<g clip-path="url(#clip0_1_48)">
<path fill-rule="evenodd" clip-rule="evenodd" d="M71.7206 204.8H62.7206C55.5206 204.8 49.0206 201.4 44.7206 196L2.12063 141.3C1.22063 140 0.52063 138.4 0.52063 136.6C0.52063 134.8 1.22063 133.2 2.12063 131.9L45.0206 77C49.3206 71.6 55.6206 68.2 63.0206 68.2H157.821L103.921 135.8L64.5206 185.5L71.7206 204.8Z" fill="url(#paint0_linear_1_48)"/>
<path fill-rule="evenodd" clip-rule="evenodd" d="M104.521 136.5L104.121 135.8L64.5206 185.5C62.9206 187.5 61.6206 190.2 61.6206 194.7C61.6206 199.2 65.9206 204.8 74.4206 204.8H157.721L104.521 136.5Z" fill="url(#paint1_linear_1_48)"/>
<path fill-rule="evenodd" clip-rule="evenodd" d="M216.821 19.3L209.621 0H218.621C225.821 0 232.321 3.4 236.621 8.8L279.521 63.6C280.421 64.9 281.121 66.5 281.121 68.3C281.121 70.1 280.421 71.7 279.521 73L236.421 127.8C232.121 133.2 225.821 136.6 218.421 136.6H123.621L177.521 68.9L216.821 19.3Z" fill="url(#paint2_linear_1_48)"/>
<path fill-rule="evenodd" clip-rule="evenodd" d="M177.021 68.3L177.421 69L216.721 19.4C218.321 17.4 219.621 14.7 219.621 10.2C219.621 5.70001 215.321 0.100006 206.821 0.100006H123.521L177.021 68.3Z" fill="url(#paint3_linear_1_48)"/>
<path d="M219.021 18.4C220.621 16.4 221.521 14.1 221.521 11.4C221.521 5.2 216.321 0 210.021 0H207.121C213.421 0 218.321 5.2 218.321 11.5C218.321 14.2 217.421 16.7 215.821 18.5L176.921 68.4L123.721 136.4L219.021 18.4Z" fill="white"/>
<path d="M62.5206 186.4C60.9206 188.4 60.0206 190.7 60.0206 193.4C60.0206 199.7 65.2206 204.9 71.5206 204.9H74.4206C68.1206 204.9 62.9206 199.7 62.9206 193.4C62.9206 190.7 63.8206 188.2 65.4206 186.4L104.521 136.5L157.721 68.5L62.5206 186.4Z" fill="white"/>
<path d="M636.521 96.1C631.121 96.1 626.821 96.8 622.421 98.1C615.221 100.3 609.821 104.2 605.821 109.6C598.821 118.6 599.121 129.4 599.121 129.4V204.4H619.121C620.421 204.4 621.321 203.3 621.321 202.2V131C621.321 129.7 621.521 124.7 624.221 122.2C626.421 120.2 629.421 119.3 632.321 118.8C635.421 118.4 638.621 118.6 640.221 118.8H640.621C642.221 118.8 643.321 117.9 644.021 116.8L654.221 99C648.821 97 643.021 95.9 636.521 96.1Z" fill="black"/>
<path d="M577.621 96.1C572.221 96.1 567.721 96.8 563.521 98.1C556.321 100.3 550.921 104.2 546.921 109.6C539.921 118.6 540.221 129.4 540.221 129.4V204.4H560.221C561.521 204.4 562.421 203.3 562.421 202.2V131C562.421 129.7 562.621 124.7 565.321 122.2C567.521 120.2 570.521 119.3 573.421 118.8C576.521 118.4 579.721 118.6 581.321 118.8H581.721C583.021 118.8 584.421 117.9 585.121 116.8L595.721 98.8C589.821 97 584.221 95.9 577.621 96.1Z" fill="black"/>
<path d="M402.921 176.7C402.221 175.8 400.921 175.1 399.521 175.1C398.821 175.1 397.921 175.3 397.521 175.8C390.821 179.8 382.721 182.3 374.121 182.3C348.921 182.3 328.521 161.9 328.521 136.5C328.521 111.3 348.921 90.9 374.121 90.9C382.621 90.9 390.721 93.1 397.521 97.4C398.221 97.8 398.821 98.1 399.721 98.1C401.021 98.1 402.221 97.4 403.121 96.5L414.621 81.7C403.421 73.4 389.421 68.5 374.221 68.5C336.521 68.5 305.921 99 305.921 136.8C305.921 174.6 336.521 205 374.221 205C389.221 205 403.221 200.1 414.621 191.8L402.921 176.7Z" fill="black"/>
<path d="M706.321 116.1C721.121 116.1 733.721 125.8 738.221 139H674.621C679.121 125.8 691.721 116.1 706.321 116.1ZM706.321 94.5C676.021 94.5 651.321 119.2 651.321 149.5C651.321 179.6 676.021 204.3 706.321 204.5H707.921C719.821 204.5 729.521 202.9 742.321 194.6L744.321 193.3C744.321 193.3 733.121 178.7 732.821 178.5C732.121 177.6 730.821 176.9 729.721 176.9C729.021 176.9 728.421 177.1 727.721 177.3C724.821 178.9 716.021 182.7 706.421 182.7C691.821 182.7 679.521 173.5 674.721 160.5H759.021C760.321 160.5 761.221 159.4 761.221 158.3L761.421 152V149.5C761.621 119.2 736.921 94.5 706.321 94.5Z" fill="black"/>
<path d="M776.621 204.8C775.321 204.8 774.421 203.9 774.421 202.6V100.4C774.421 99.3 775.321 98.2 776.621 98.2H794.321C795.621 98.2 796.521 99.3 796.521 100.4V202.6C796.521 203.9 795.421 204.8 794.321 204.8H776.621Z" fill="black"/>
<path d="M473.721 115.7C455.321 115.7 440.521 130.5 440.521 148.9C440.521 167.3 455.321 182.1 473.721 182.1C492.121 182.1 506.921 167.3 506.921 148.9C506.921 130.5 492.121 115.7 473.721 115.7ZM473.721 204.8C442.921 204.8 418.021 179.9 418.021 149.1C418.021 118.3 442.921 93.4 473.721 93.4C504.521 93.4 529.421 118.3 529.421 149.1C529.421 179.7 504.421 204.8 473.721 204.8Z" fill="black"/>
<path d="M863.121 116.6C844.921 116.6 830.121 131.4 830.121 149.6C830.121 167.8 844.921 182.4 863.121 182.4C881.321 182.4 896.121 167.6 896.121 149.6C896.121 131.4 881.321 116.6 863.121 116.6ZM863.121 204.6C832.621 204.6 807.921 179.9 807.921 149.4C807.921 118.9 832.621 94.2 863.121 94.2C893.621 94.2 918.321 118.9 918.321 149.4C918.321 179.9 893.621 204.6 863.121 204.6Z" fill="black"/>
<path d="M981.021 141C977.221 139.2 972.221 138.1 966.921 136.7C959.021 134.7 951.621 134.2 948.921 130C946.421 126 947.821 121.5 951.121 119C959.021 113.6 969.521 115.9 975.421 118.6C976.521 119 980.821 121.5 980.821 121.5C981.521 121.9 982.121 122.2 982.821 122.2C984.121 122.2 985.321 121.5 986.221 120.4L997.421 106L995.621 104.4C994.521 103.5 992.921 102.6 991.321 101.7C987.921 99.9 977.821 94.1 963.221 94.1H961.921C929.821 94.8 925.321 117.5 925.321 125.5C925.321 137.6 931.621 146.4 941.021 151.8C948.621 156.1 962.821 158.5 970.021 160.8C973.821 161.9 976.521 164.6 977.621 167.1C978.021 168.2 978.321 169.3 978.321 170.7C978.521 175 976.321 179.7 970.021 181.7C963.021 183.7 952.321 182.8 942.421 175.2C942.221 175 941.121 174.1 940.621 173.9C940.221 173.7 939.721 173.7 939.021 173.7C937.721 173.7 936.521 174.4 935.621 175.5C935.421 175.7 924.621 189.6 924.621 189.6C924.621 189.6 928.421 192.7 929.821 193.6C936.121 198.3 947.321 204.6 961.921 204.6H962.321C993.321 204.6 1000.52 182.6 1000.52 170.5C1000.52 158.3 993.121 146.4 981.021 141Z" fill="black"/>
</g>
<defs>
<linearGradient id="paint0_linear_1_48" x1="155.086" y1="64.9063" x2="22.9516" y2="168.14" gradientUnits="userSpaceOnUse">
<stop/>
<stop offset="0.9" stop-color="#333333"/>
<stop offset="1" stop-color="#535353"/>
</linearGradient>
<linearGradient id="paint1_linear_1_48" x1="157.717" y1="170.34" x2="61.6018" y2="170.34" gradientUnits="userSpaceOnUse">
<stop stop-color="#1B1B1B"/>
</linearGradient>
<linearGradient id="paint2_linear_1_48" x1="126.078" y1="139.747" x2="258.33" y2="36.7934" gradientUnits="userSpaceOnUse">
<stop/>
<stop offset="0.9" stop-color="#333333"/>
<stop offset="1" stop-color="#535353"/>
</linearGradient>
<linearGradient id="paint3_linear_1_48" x1="206.698" y1="-9.4058" x2="150.521" y2="34.4838" gradientUnits="userSpaceOnUse">
<stop stop-color="#1B1B1B"/>
</linearGradient>
<clipPath id="clip0_1_48">
<rect width="1000" height="205" fill="white" transform="translate(0.52063)"/>
</clipPath>
</defs>
</svg>
