<svg width="1000" height="205" viewBox="0 0 1000 205" fill="none" xmlns="http://www.w3.org/2000/svg">
<g clip-path="url(#clip0_1_47)">
<path fill-rule="evenodd" clip-rule="evenodd" d="M71.2 204.8H62.2C55 204.8 48.5 201.4 44.2 196L1.6 141.3C0.7 140 0 138.4 0 136.6C0 134.8 0.7 133.2 1.6 131.9L44.5 77C48.8 71.6 55.1 68.2 62.5 68.2H157.3L103.4 135.8L64 185.5L71.2 204.8Z" fill="url(#paint0_linear_1_47)"/>
<path fill-rule="evenodd" clip-rule="evenodd" d="M104 136.5L103.6 135.8L64 185.5C62.4 187.5 61.1 190.2 61.1 194.7C61.1 199.2 65.4 204.8 73.9 204.8H157.2L104 136.5Z" fill="url(#paint1_linear_1_47)"/>
<path fill-rule="evenodd" clip-rule="evenodd" d="M216.3 19.3L209.1 0H218.1C225.3 0 231.8 3.4 236.1 8.8L279 63.6C279.9 64.9 280.6 66.5 280.6 68.3C280.6 70.1 279.9 71.7 279 73L235.9 127.8C231.6 133.2 225.3 136.6 217.9 136.6H123.1L177 68.9L216.3 19.3Z" fill="url(#paint2_linear_1_47)"/>
<path fill-rule="evenodd" clip-rule="evenodd" d="M176.5 68.3L176.9 69L216.2 19.4C217.8 17.4 219.1 14.7 219.1 10.2C219.1 5.70001 214.8 0.100006 206.3 0.100006H123L176.5 68.3Z" fill="url(#paint3_linear_1_47)"/>
<path d="M218.5 18.4C220.1 16.4 221 14.1 221 11.4C221 5.2 215.8 0 209.5 0H206.6C212.9 0 217.8 5.2 217.8 11.5C217.8 14.2 216.9 16.7 215.3 18.5L176.4 68.4L123.2 136.4L218.5 18.4Z" fill="white"/>
<path d="M62 186.4C60.4 188.4 59.5 190.7 59.5 193.4C59.5 199.7 64.7 204.9 71 204.9H73.9C67.6 204.9 62.4 199.7 62.4 193.4C62.4 190.7 63.3 188.2 64.9 186.4L104 136.5L157.2 68.5L62 186.4Z" fill="white"/>
<path d="M636 96.1C630.6 96.1 626.3 96.8 621.9 98.1C614.7 100.3 609.3 104.2 605.3 109.6C598.3 118.6 598.6 129.4 598.6 129.4V204.4H618.6C619.9 204.4 620.8 203.3 620.8 202.2V131C620.8 129.7 621 124.7 623.7 122.2C625.9 120.2 628.9 119.3 631.8 118.8C634.9 118.4 638.1 118.6 639.7 118.8H640.1C641.7 118.8 642.8 117.9 643.5 116.8L653.7 99C648.3 97 642.5 95.9 636 96.1Z" fill="white"/>
<path d="M577.1 96.1C571.7 96.1 567.2 96.8 563 98.1C555.8 100.3 550.4 104.2 546.4 109.6C539.4 118.6 539.7 129.4 539.7 129.4V204.4H559.7C561 204.4 561.9 203.3 561.9 202.2V131C561.9 129.7 562.1 124.7 564.8 122.2C567 120.2 570 119.3 572.9 118.8C576 118.4 579.2 118.6 580.8 118.8H581.2C582.5 118.8 583.9 117.9 584.6 116.8L595.2 98.8C589.3 97 583.7 95.9 577.1 96.1Z" fill="white"/>
<path d="M402.4 176.7C401.7 175.8 400.4 175.1 399 175.1C398.3 175.1 397.4 175.3 397 175.8C390.3 179.8 382.2 182.3 373.6 182.3C348.4 182.3 328 161.9 328 136.5C328 111.3 348.4 90.9 373.6 90.9C382.1 90.9 390.2 93.1 397 97.4C397.7 97.8 398.3 98.1 399.2 98.1C400.5 98.1 401.7 97.4 402.6 96.5L414.1 81.7C402.9 73.4 388.9 68.5 373.7 68.5C336 68.5 305.4 99 305.4 136.8C305.4 174.6 336 205 373.7 205C388.7 205 402.7 200.1 414.1 191.8L402.4 176.7Z" fill="white"/>
<path d="M705.8 116.1C720.6 116.1 733.2 125.8 737.7 139H674.1C678.6 125.8 691.2 116.1 705.8 116.1ZM705.8 94.5C675.5 94.5 650.8 119.2 650.8 149.5C650.8 179.6 675.5 204.3 705.8 204.5H707.4C719.3 204.5 729 202.9 741.8 194.6L743.8 193.3C743.8 193.3 732.6 178.7 732.3 178.5C731.6 177.6 730.3 176.9 729.2 176.9C728.5 176.9 727.9 177.1 727.2 177.3C724.3 178.9 715.5 182.7 705.9 182.7C691.3 182.7 679 173.5 674.2 160.5H758.5C759.8 160.5 760.7 159.4 760.7 158.3L760.9 152V149.5C761.1 119.2 736.4 94.5 705.8 94.5Z" fill="white"/>
<path d="M776.1 204.8C774.8 204.8 773.9 203.9 773.9 202.6V100.4C773.9 99.3 774.8 98.2 776.1 98.2H793.8C795.1 98.2 796 99.3 796 100.4V202.6C796 203.9 794.9 204.8 793.8 204.8H776.1Z" fill="white"/>
<path d="M473.2 115.7C454.8 115.7 440 130.5 440 148.9C440 167.3 454.8 182.1 473.2 182.1C491.6 182.1 506.4 167.3 506.4 148.9C506.4 130.5 491.6 115.7 473.2 115.7ZM473.2 204.8C442.4 204.8 417.5 179.9 417.5 149.1C417.5 118.3 442.4 93.4 473.2 93.4C504 93.4 528.9 118.3 528.9 149.1C528.9 179.7 503.9 204.8 473.2 204.8Z" fill="white"/>
<path d="M862.6 116.6C844.4 116.6 829.6 131.4 829.6 149.6C829.6 167.8 844.4 182.4 862.6 182.4C880.8 182.4 895.6 167.6 895.6 149.6C895.6 131.4 880.8 116.6 862.6 116.6ZM862.6 204.6C832.1 204.6 807.4 179.9 807.4 149.4C807.4 118.9 832.1 94.2 862.6 94.2C893.1 94.2 917.8 118.9 917.8 149.4C917.8 179.9 893.1 204.6 862.6 204.6Z" fill="white"/>
<path d="M980.5 141C976.7 139.2 971.7 138.1 966.4 136.7C958.5 134.7 951.1 134.2 948.4 130C945.9 126 947.3 121.5 950.6 119C958.5 113.6 969 115.9 974.9 118.6C976 119 980.3 121.5 980.3 121.5C981 121.9 981.6 122.2 982.3 122.2C983.6 122.2 984.8 121.5 985.7 120.4L996.9 106L995.1 104.4C994 103.5 992.4 102.6 990.8 101.7C987.4 99.9 977.3 94.1 962.7 94.1H961.4C929.3 94.8 924.8 117.5 924.8 125.5C924.8 137.6 931.1 146.4 940.5 151.8C948.1 156.1 962.3 158.5 969.5 160.8C973.3 161.9 976 164.6 977.1 167.1C977.5 168.2 977.8 169.3 977.8 170.7C978 175 975.8 179.7 969.5 181.7C962.5 183.7 951.8 182.8 941.9 175.2C941.7 175 940.6 174.1 940.1 173.9C939.7 173.7 939.2 173.7 938.5 173.7C937.2 173.7 936 174.4 935.1 175.5C934.9 175.7 924.1 189.6 924.1 189.6C924.1 189.6 927.9 192.7 929.3 193.6C935.6 198.3 946.8 204.6 961.4 204.6H961.8C992.8 204.6 1000 182.6 1000 170.5C1000 158.3 992.6 146.4 980.5 141Z" fill="white"/>
</g>
<defs>
<linearGradient id="paint0_linear_1_47" x1="154.566" y1="64.9063" x2="22.431" y2="168.14" gradientUnits="userSpaceOnUse">
<stop stop-color="#CCCCCC" stop-opacity="0.8"/>
<stop offset="0.9" stop-color="#DFDFDF"/>
<stop offset="1" stop-color="white"/>
</linearGradient>
<linearGradient id="paint1_linear_1_47" x1="157.196" y1="170.34" x2="61.0812" y2="170.34" gradientUnits="userSpaceOnUse">
<stop offset="1" stop-color="#F4F4F4"/>
</linearGradient>
<linearGradient id="paint2_linear_1_47" x1="125.558" y1="139.747" x2="257.81" y2="36.7934" gradientUnits="userSpaceOnUse">
<stop stop-color="#CCCCCC"/>
<stop offset="0.9" stop-color="#DFDFDF"/>
<stop offset="1" stop-color="white"/>
</linearGradient>
<linearGradient id="paint3_linear_1_47" x1="206.177" y1="-9.4058" x2="150" y2="34.4838" gradientUnits="userSpaceOnUse">
<stop offset="1" stop-color="#F4F4F4"/>
</linearGradient>
<clipPath id="clip0_1_47">
<rect width="1000" height="205" fill="white"/>
</clipPath>
</defs>
</svg>
