<svg width="1086" height="246" viewBox="0 0 1086 246" fill="none" xmlns="http://www.w3.org/2000/svg">
<path fill-rule="evenodd" clip-rule="evenodd" d="M725.704 28.9693C705.454 31.4406 684.503 40.2636 669.879 52.4801C650.316 68.8215 637.073 92.8864 632.911 119.662C631.741 127.19 631.316 144.023 632.122 150.955C635.403 179.179 652.784 197.778 681.333 203.616C689.619 205.311 697.754 205.891 708.893 205.58C725.876 205.107 736.858 202.521 756.502 194.367L764.299 191.132L769.114 171.421C771.762 160.58 774.035 151.419 774.166 151.064C774.335 150.605 773.7 150.418 771.975 150.418C769.808 150.418 769.092 150.757 765.329 153.569C756.84 159.914 744.507 166.591 736.383 169.242C728.293 171.882 724.64 172.388 713.815 172.366C704.275 172.348 703.515 172.273 699.601 170.958C685.866 166.346 679.667 157.503 678.064 140.239C676.612 124.585 680.078 106.325 687.037 92.9655C696.682 74.4516 712.794 63.0141 731.261 61.5704C750.389 60.0755 764.197 65.2977 779.258 79.724C783.328 83.6214 783.522 83.7372 785.998 83.7372H788.547L793.349 63.9657C795.991 53.0916 798.262 43.7961 798.398 43.3092C798.589 42.6254 797.61 41.9053 794.093 40.1437C784.59 35.382 772.937 31.8195 760.595 29.9018C752.939 28.7119 732.326 28.1614 725.704 28.9693ZM309.175 33.7269C308.177 37.7406 270.313 202.016 270.313 202.329C270.313 202.498 280.252 202.575 292.401 202.501L314.488 202.366L320.289 177.297C323.479 163.508 326.343 151.036 326.653 149.581L327.217 146.935L343.865 146.641C365.781 146.252 376.061 144.875 389.717 140.5C413.168 132.986 430.178 118.035 436.563 99.326C441.806 83.961 440.814 65.8152 434.107 54.4169C431.501 49.986 424.84 43.5821 420.012 40.8627C411.489 36.0638 399.536 33.1397 384.031 32.0614C379.909 31.775 361.503 31.5378 343.128 31.5352L309.72 31.53L309.175 33.7269ZM526.495 32.6931C524.82 35.3138 424.867 202.259 424.867 202.435C424.867 202.54 435.169 202.625 447.761 202.625H470.656L480.692 185.05L490.729 167.475H522.153C540.055 167.475 553.576 167.672 553.576 167.933C553.576 169.108 557.254 201.41 557.453 201.979C557.629 202.482 562.54 202.625 579.663 202.625C592.644 202.625 601.648 202.431 601.648 202.151C601.648 201.347 578.4 33.93 578.117 32.6931L577.85 31.53H552.544H527.237L526.495 32.6931ZM340.914 87.9541C337.811 101.413 335.167 112.948 335.038 113.588L334.805 114.751H344.449C355.296 114.751 362.19 114.135 368.266 112.623C380.653 109.54 389.282 101.751 392.039 91.1646C393.095 87.1105 393.048 79.9132 391.943 76.4913C390.804 72.9644 387.083 68.8799 383.34 67.0469C377.907 64.3864 375.069 63.9776 360.254 63.7207L346.556 63.4834L340.914 87.9541ZM525.601 106.389L508.223 136.72L528.912 136.855C540.291 136.929 549.717 136.874 549.859 136.732C550.159 136.432 543.842 78.8675 543.325 77.1839C543.05 76.2892 539.42 82.2708 525.601 106.389Z" fill="white"/>
<path fill-rule="evenodd" clip-rule="evenodd" d="M26.1953 122.377C12.0456 189.683 0.47317 244.927 0.479373 245.14C0.485059 245.354 234.56 245.528 520.645 245.528H1040.8L1063.41 123.151C1075.84 55.8436 1086.01 0.600125 1086 0.386644C1085.99 0.173164 853.321 -0.000515752 568.953 1.15082e-06L51.9215 0.000518054L26.1953 122.377ZM725.704 28.9693C705.454 31.4406 684.504 40.2636 669.879 52.4801C650.316 68.8215 637.074 92.8864 632.911 119.662C631.741 127.19 631.316 144.023 632.122 150.955C635.403 179.179 652.784 197.778 681.333 203.616C689.619 205.311 697.754 205.891 708.894 205.58C725.876 205.107 736.858 202.521 756.502 194.367L764.299 191.132L769.114 171.421C771.762 160.58 774.035 151.419 774.166 151.064C774.335 150.605 773.7 150.418 771.975 150.418C769.808 150.418 769.092 150.757 765.33 153.569C756.84 159.914 744.507 166.591 736.383 169.242C728.293 171.882 724.64 172.388 713.815 172.366C704.276 172.348 703.515 172.273 699.601 170.958C685.867 166.346 679.667 157.503 678.064 140.239C676.612 124.585 680.078 106.325 687.037 92.9655C696.682 74.4516 712.794 63.0141 731.261 61.5704C750.389 60.0755 764.197 65.2977 779.258 79.724C783.328 83.6214 783.522 83.7372 785.998 83.7372H788.547L793.349 63.9657C795.991 53.0916 798.262 43.7961 798.398 43.3092C798.589 42.6254 797.61 41.9053 794.093 40.1437C784.59 35.382 772.937 31.8195 760.595 29.9018C752.939 28.7119 732.326 28.1614 725.704 28.9693ZM309.175 33.7269C308.177 37.7406 270.313 202.016 270.313 202.329C270.313 202.498 280.252 202.575 292.401 202.501L314.488 202.366L320.289 177.297C323.479 163.508 326.343 151.036 326.653 149.581L327.217 146.935L343.865 146.641C365.781 146.252 376.061 144.875 389.717 140.5C413.168 132.986 430.178 118.035 436.563 99.326C441.806 83.961 440.814 65.8152 434.108 54.4169C431.501 49.9861 424.841 43.5821 420.012 40.8627C411.489 36.0638 399.536 33.1397 384.032 32.0614C379.909 31.775 361.503 31.5378 343.129 31.5352L309.72 31.53L309.175 33.7269ZM526.495 32.6931C524.82 35.3138 424.867 202.259 424.867 202.435C424.867 202.54 435.169 202.625 447.761 202.625H470.656L480.692 185.05L490.729 167.475H522.153C540.055 167.475 553.576 167.672 553.576 167.933C553.576 169.108 557.254 201.41 557.453 201.979C557.629 202.482 562.54 202.625 579.663 202.625C592.644 202.625 601.648 202.431 601.648 202.151C601.648 201.347 578.4 33.93 578.117 32.6931L577.85 31.53H552.544H527.237L526.495 32.6931ZM340.914 87.9541C337.811 101.413 335.167 112.948 335.038 113.588L334.805 114.751H344.449C355.296 114.751 362.19 114.135 368.266 112.623C380.653 109.54 389.282 101.751 392.039 91.1646C393.095 87.1105 393.048 79.9132 391.943 76.4913C390.804 72.9644 387.083 68.8799 383.34 67.0469C377.907 64.3864 375.069 63.9776 360.254 63.7207L346.556 63.4834L340.914 87.9541ZM525.601 106.389L508.223 136.72L528.912 136.855C540.291 136.929 549.717 136.874 549.859 136.732C550.159 136.432 543.842 78.8675 543.325 77.1839C543.05 76.2892 539.42 82.2708 525.601 106.389Z" fill="black"/>
</svg>
