<svg width="1086" height="246" viewBox="0 0 1086 246" fill="none" xmlns="http://www.w3.org/2000/svg">
<path fill-rule="evenodd" clip-rule="evenodd" d="M725.225 28.9693C704.975 31.4406 684.024 40.2636 669.399 52.4801C649.837 68.8215 636.594 92.8864 632.431 119.662C631.261 127.19 630.837 144.023 631.643 150.955C634.924 179.179 652.304 197.778 680.854 203.616C689.14 205.311 697.274 205.891 708.414 205.58C725.396 205.107 736.379 202.521 756.023 194.367L763.819 191.132L768.634 171.421C771.282 160.58 773.556 151.419 773.687 151.064C773.856 150.605 773.221 150.418 771.496 150.418C769.329 150.418 768.613 150.757 764.85 153.569C756.361 159.914 744.028 166.591 735.904 169.242C727.813 171.882 724.161 172.388 713.336 172.366C703.796 172.348 703.035 172.273 699.121 170.958C685.387 166.346 679.187 157.503 677.585 140.239C676.133 124.585 679.598 106.325 686.557 92.9655C696.202 74.4516 712.314 63.0141 730.782 61.5704C749.91 60.0755 763.718 65.2977 778.779 79.724C782.849 83.6214 783.043 83.7372 785.518 83.7372H788.068L792.87 63.9657C795.511 53.0916 797.783 43.7961 797.919 43.3092C798.109 42.6254 797.13 41.9053 793.614 40.1437C784.111 35.382 772.458 31.8195 760.116 29.9018C752.459 28.7119 731.847 28.1614 725.225 28.9693ZM308.695 33.7269C307.698 37.7406 269.833 202.016 269.833 202.329C269.833 202.498 279.773 202.575 291.921 202.501L314.009 202.366L319.809 177.297C323 163.508 325.864 151.036 326.174 149.581L326.738 146.935L343.386 146.641C365.301 146.252 375.582 144.875 389.238 140.5C412.689 132.986 429.699 118.035 436.083 99.326C441.327 83.961 440.334 65.8152 433.628 54.4169C431.021 49.986 424.361 43.5821 419.532 40.8627C411.01 36.0638 399.057 33.1397 383.552 32.0614C379.43 31.775 361.023 31.5378 342.649 31.5352L309.241 31.53L308.695 33.7269ZM526.015 32.6931C524.341 35.3138 424.387 202.259 424.387 202.435C424.387 202.54 434.69 202.625 447.282 202.625H470.176L480.213 185.05L490.25 167.475H521.673C539.576 167.475 553.096 167.672 553.096 167.933C553.096 169.108 556.775 201.41 556.973 201.979C557.149 202.482 562.061 202.625 579.184 202.625C592.165 202.625 601.168 202.431 601.168 202.151C601.168 201.347 577.921 33.93 577.637 32.6931L577.371 31.53H552.064H526.758L526.015 32.6931ZM340.434 87.9541C337.331 101.413 334.687 112.948 334.559 113.588L334.326 114.751H343.969C354.816 114.751 361.711 114.135 367.787 112.623C380.174 109.54 388.803 101.751 391.56 91.1646C392.616 87.1105 392.568 79.9132 391.463 76.4913C390.325 72.9644 386.604 68.8799 382.86 67.0469C377.427 64.3864 374.59 63.9776 359.775 63.7207L346.077 63.4834L340.434 87.9541ZM525.122 106.389L507.744 136.72L528.433 136.855C539.811 136.929 549.238 136.874 549.38 136.732C549.68 136.432 543.363 78.8675 542.845 77.1839C542.57 76.2892 538.94 82.2708 525.122 106.389Z" fill="black"/>
<path fill-rule="evenodd" clip-rule="evenodd" d="M25.7159 122.377C11.5662 189.683 -0.00620034 244.927 2.49238e-06 245.14C0.00568842 245.354 234.08 245.528 520.166 245.528H1040.32L1062.93 123.151C1075.36 55.8436 1085.53 0.600125 1085.52 0.386644C1085.51 0.173164 852.842 -0.000515752 568.474 1.15082e-06L51.4422 0.000518054L25.7159 122.377ZM725.225 28.9693C704.975 31.4406 684.024 40.2636 669.399 52.4801C649.837 68.8215 636.594 92.8864 632.432 119.662C631.261 127.19 630.837 144.023 631.643 150.955C634.924 179.179 652.304 197.778 680.854 203.616C689.14 205.311 697.274 205.891 708.414 205.58C725.397 205.107 736.379 202.521 756.023 194.367L763.819 191.132L768.634 171.421C771.282 160.58 773.556 151.419 773.687 151.064C773.856 150.605 773.221 150.418 771.496 150.418C769.329 150.418 768.613 150.757 764.85 153.569C756.361 159.914 744.028 166.591 735.904 169.242C727.814 171.882 724.161 172.388 713.336 172.366C703.796 172.348 703.035 172.273 699.121 170.958C685.387 166.346 679.188 157.503 677.585 140.239C676.133 124.585 679.598 106.325 686.557 92.9655C696.202 74.4516 712.314 63.0141 730.782 61.5704C749.91 60.0755 763.718 65.2977 778.779 79.724C782.849 83.6214 783.043 83.7372 785.519 83.7372H788.068L792.87 63.9657C795.511 53.0916 797.783 43.7961 797.919 43.3092C798.109 42.6254 797.13 41.9053 793.614 40.1437C784.111 35.382 772.458 31.8195 760.116 29.9018C752.459 28.7119 731.847 28.1614 725.225 28.9693ZM308.695 33.7269C307.698 37.7406 269.834 202.016 269.834 202.329C269.834 202.498 279.773 202.575 291.921 202.501L314.009 202.366L319.809 177.297C323 163.508 325.864 151.036 326.174 149.581L326.738 146.935L343.386 146.641C365.301 146.252 375.582 144.875 389.238 140.5C412.689 132.986 429.699 118.035 436.083 99.326C441.327 83.961 440.334 65.8152 433.628 54.4169C431.021 49.986 424.361 43.5821 419.532 40.8627C411.01 36.0638 399.057 33.1397 383.552 32.0614C379.43 31.775 361.024 31.5378 342.649 31.5352L309.241 31.53L308.695 33.7269ZM526.015 32.6931C524.341 35.3138 424.388 202.259 424.388 202.435C424.388 202.54 434.69 202.625 447.282 202.625H470.176L480.213 185.05L490.25 167.475H521.673C539.576 167.475 553.096 167.672 553.096 167.933C553.096 169.108 556.775 201.41 556.974 201.979C557.149 202.482 562.061 202.625 579.184 202.625C592.165 202.625 601.168 202.431 601.168 202.151C601.168 201.347 577.921 33.93 577.637 32.6931L577.371 31.53H552.065H526.758L526.015 32.6931ZM340.434 87.9541C337.331 101.413 334.687 112.948 334.559 113.588L334.326 114.751H343.969C354.817 114.751 361.711 114.135 367.787 112.623C380.174 109.54 388.803 101.751 391.56 91.1646C392.616 87.1105 392.569 79.9132 391.463 76.4913C390.325 72.9644 386.604 68.8799 382.861 67.0469C377.427 64.3864 374.59 63.9776 359.775 63.7207L346.077 63.4834L340.434 87.9541ZM525.122 106.389L507.744 136.72L528.433 136.855C539.811 136.929 549.238 136.874 549.38 136.732C549.68 136.432 543.363 78.8675 542.846 77.1839C542.571 76.2892 538.94 82.2708 525.122 106.389Z" fill="white"/>
</svg>
