<svg width="1033" height="233" viewBox="0 0 1033 233" fill="none" xmlns="http://www.w3.org/2000/svg">
<g clip-path="url(#clip0_1_50)">
<path fill-rule="evenodd" clip-rule="evenodd" d="M48.9937 0.121949C48.9937 0.188815 37.9701 52.4786 24.4969 116.321C11.0236 180.163 0 232.533 0 232.699C0 232.904 158.012 233 494.949 233H989.898L990.048 232.337C990.361 230.952 1033 0.629777 1033 0.322547C1033 0.0889583 897.326 0 540.997 0C270.395 0 48.9937 0.0547889 48.9937 0.121949ZM156.868 23.1742C145.87 23.6149 136.887 24.7322 128.83 26.6616C121.946 28.3099 117.233 30.0261 110.236 33.4306C98.295 39.2409 89.995 46.382 82.8985 56.9504C77.225 65.3994 74.2751 74.0875 73.8805 83.5088C73.4372 94.0908 76.4411 102.19 83.6154 109.756C92.4396 119.062 106.812 125.614 131.339 131.514C145.044 134.81 152.936 137.426 157.224 140.093C159.733 141.654 161.71 143.902 163.024 146.688C165.453 151.84 163.719 158.887 158.702 164.249C153.065 170.273 146.057 173.089 135.913 173.407C130.383 173.58 126.46 173.097 122.594 171.767C119.156 170.585 117.108 169.302 114.497 166.695C112.696 164.897 111.991 163.914 110.907 161.688C110.165 160.164 109.347 158.035 109.089 156.957C108.414 154.136 107.992 148.728 108.212 145.735L108.402 143.158H107.598C106.23 143.158 53.0162 146.409 52.9268 146.498C52.7305 146.694 52.245 153.551 52.2429 156.161C52.2376 161.936 53.2771 168.807 54.9323 173.94C56.1158 177.61 59.517 184.289 61.9041 187.63C64.4533 191.198 69.4622 196.267 72.3144 198.164C83.8961 205.867 100.983 209.441 126.321 209.461C142.022 209.473 153.565 208.043 165.594 204.598C176.151 201.574 185.19 197.084 194.056 190.463C201.055 185.236 209.024 176.497 213.556 169.08C221.389 156.258 224.698 140.714 222.221 128.374C220.628 120.437 217.377 114.424 211.755 109.02C201.818 99.4686 186.531 93.4141 152.884 85.7045C138.36 82.3768 133.226 80.3005 130.919 76.8222C129.456 74.6168 129.117 72.7811 129.705 70.252C130.848 65.3337 133.725 61.9297 138.865 59.4156C142.995 57.3952 147.103 56.5557 152.849 56.5574C167.977 56.5621 174.934 62.624 175.788 76.5459L175.993 79.8925L179.712 79.6963C181.758 79.5885 186.818 79.3116 190.957 79.0807C195.097 78.85 203.531 78.3926 209.699 78.0638C224.718 77.2638 230.278 76.913 230.435 76.7557C230.776 76.4155 230.841 67.7989 230.528 64.5095C228.966 48.1282 222.213 37.779 208.718 31.085C196.517 25.0326 178.624 22.3026 156.868 23.1742ZM243.398 116.132C232.892 165.424 224.299 205.852 224.302 205.974C224.31 206.232 381.029 206.279 381.029 206.021C381.029 205.925 382.894 196.944 385.172 186.064C387.45 175.184 389.343 166.082 389.378 165.839C389.434 165.449 383.721 165.381 339.979 165.25L290.516 165.103L293.559 150.669C295.233 142.731 296.889 134.877 297.239 133.216L297.876 130.197H342.532C384.807 130.197 387.196 130.17 387.339 129.682C387.642 128.649 394.901 94.2012 394.901 93.795C394.901 93.4357 388.636 93.3767 350.335 93.3767C325.823 93.3767 305.768 93.3137 305.768 93.2365C305.768 93.078 311.278 66.4937 311.524 65.4668L311.682 64.804H359.767C392.842 64.804 407.912 64.708 408.043 64.4968C408.245 64.1698 416.147 27.504 416.15 26.8789C416.151 26.5853 400.591 26.5107 339.326 26.5107H262.501L243.398 116.132ZM437.85 26.8683C437.777 27.0766 429.274 67.2784 418.953 116.205C408.631 165.132 400.116 205.4 400.03 205.689C399.879 206.193 401.895 206.211 447.34 206.118C490.307 206.031 495.171 205.974 498.644 205.512C510.684 203.914 522.191 201.414 528.773 198.967C536.264 196.182 545.907 190.474 552.95 184.655C557.238 181.113 563.691 174.535 567.363 169.963C575.431 159.917 579.724 151.861 584.236 138.298C587.768 127.683 590.8 114.787 592.061 105.012C593.195 96.2261 593.331 83.2979 592.366 75.9975C590.583 62.4961 585.53 51.4615 577.462 43.4482C569.391 35.4307 559.641 30.6084 546.82 28.2932C537.636 26.6345 540.146 26.7057 487.054 26.5932C447.253 26.509 437.957 26.5611 437.85 26.8683ZM625.884 27.3208C625.799 27.6045 617.217 67.8012 606.812 116.647C596.407 165.493 587.826 205.69 587.742 205.974C587.597 206.465 591.411 206.487 666.024 206.416L744.459 206.342L748.671 186.312C750.987 175.295 752.889 166.182 752.896 166.06C752.904 165.939 730.663 165.839 703.473 165.839C664.12 165.839 654.037 165.764 654.038 165.471C654.039 165.269 655.678 157.349 657.682 147.871L661.324 130.639L706.026 130.565L750.729 130.49L754.525 112.596C756.613 102.754 758.381 94.4707 758.453 94.1877C758.579 93.6999 756.258 93.6692 713.896 93.5985L669.206 93.524L672.162 79.3122L675.117 65.1004L723.362 65.0259L771.606 64.9513L775.677 45.952C777.916 35.5023 779.753 26.9196 779.758 26.8789C779.763 26.8383 745.178 26.8053 702.902 26.8053C629.953 26.8053 626.03 26.8315 625.884 27.3208ZM796 27.0074C796 27.1184 805.025 46.3054 816.056 69.6455C827.087 92.9853 836.151 112.221 836.2 112.391C836.248 112.561 817.527 133.666 794.598 159.291C771.67 184.917 752.909 205.953 752.909 206.039C752.909 206.125 767.287 206.185 784.859 206.173L816.808 206.152L841.01 177.474C854.321 161.701 865.278 148.789 865.359 148.78C865.44 148.772 871.005 161.752 877.725 177.627L889.944 206.489H922.071C939.74 206.489 954.197 206.408 954.197 206.31C954.197 206.211 944.361 185.336 932.34 159.92L910.482 113.711L947.583 71.2158C967.988 47.8431 985.089 28.2893 985.584 27.7626L986.483 26.8053H955.17H923.857L902.243 54.2734C890.355 69.3807 880.54 81.7768 880.431 81.8201C880.322 81.8634 875.8 70.3312 870.381 56.1931C864.962 42.0549 860.208 29.659 859.816 28.6463L859.104 26.8053H827.552C810.198 26.8053 796 26.8963 796 27.0074ZM487.158 67.4148C487.064 67.5676 482.471 89.345 476.953 115.809C471.435 142.273 466.85 164.223 466.765 164.588L466.61 165.25L477.462 165.247C489.024 165.244 493.372 165 498.78 164.05C504.386 163.065 507.923 161.663 511.925 158.838C515.813 156.094 520.419 151.052 523.001 146.713C526.37 141.055 529.761 131.232 532.264 119.887C534.585 109.364 535.393 103.16 535.402 95.8134C535.413 85.5263 533.752 80.2209 529.057 75.5488C526.414 72.919 523.697 71.3277 519.599 70.0099C514.357 68.3247 510.189 67.8401 498.939 67.6086C494.394 67.5149 489.922 67.3706 489.003 67.2878C488.083 67.2047 487.253 67.2619 487.158 67.4148Z" fill="black"/>
<path fill-rule="evenodd" clip-rule="evenodd" d="M156.868 23.1742C145.87 23.6149 136.887 24.7322 128.83 26.6615C121.946 28.3099 117.233 30.0261 110.236 33.4306C98.295 39.2409 89.995 46.382 82.8985 56.9504C77.225 65.3993 74.2751 74.0875 73.8805 83.5088C73.4371 94.0907 76.4411 102.19 83.6154 109.756C92.4396 119.062 106.812 125.614 131.339 131.514C145.044 134.81 152.936 137.426 157.224 140.093C159.733 141.654 161.71 143.902 163.024 146.688C165.453 151.84 163.719 158.887 158.702 164.249C153.065 170.273 146.057 173.089 135.913 173.407C130.383 173.58 126.46 173.097 122.594 171.767C119.156 170.585 117.108 169.302 114.497 166.695C112.696 164.897 111.991 163.914 110.907 161.688C110.165 160.164 109.347 158.035 109.089 156.957C108.414 154.136 107.992 148.728 108.212 145.735L108.402 143.158H107.598C106.23 143.158 53.0162 146.409 52.9268 146.498C52.7305 146.694 52.245 153.551 52.2429 156.161C52.2376 161.936 53.2771 168.807 54.9323 173.94C56.1158 177.61 59.517 184.289 61.9041 187.63C64.4533 191.198 69.4622 196.267 72.3144 198.164C83.8961 205.867 100.983 209.441 126.321 209.46C142.022 209.473 153.565 208.043 165.594 204.598C176.151 201.574 185.19 197.084 194.056 190.463C201.055 185.236 209.024 176.497 213.556 169.08C221.389 156.258 224.698 140.714 222.221 128.374C220.628 120.437 217.377 114.424 211.755 109.02C201.818 99.4686 186.531 93.4141 152.884 85.7045C138.36 82.3768 133.226 80.3004 130.919 76.8222C129.456 74.6168 129.117 72.7811 129.705 70.252C130.848 65.3337 133.725 61.9297 138.865 59.4156C142.995 57.3952 147.103 56.5556 152.849 56.5574C167.977 56.5621 174.934 62.624 175.788 76.5459L175.993 79.8925L179.712 79.6963C181.758 79.5885 186.818 79.3116 190.957 79.0807C195.097 78.85 203.531 78.3926 209.699 78.0638C224.718 77.2638 230.278 76.913 230.435 76.7557C230.776 76.4154 230.841 67.7989 230.528 64.5095C228.966 48.1282 222.213 37.779 208.718 31.085C196.517 25.0326 178.624 22.3026 156.868 23.1742ZM243.398 116.132C232.892 165.423 224.299 205.852 224.302 205.974C224.31 206.232 381.029 206.279 381.029 206.021C381.029 205.925 382.894 196.944 385.172 186.064C387.45 175.184 389.343 166.082 389.378 165.839C389.434 165.449 383.721 165.38 339.979 165.25L290.517 165.103L293.559 150.669C295.233 142.731 296.889 134.877 297.239 133.216L297.876 130.197H342.532C384.807 130.197 387.196 130.17 387.339 129.682C387.642 128.649 394.901 94.2012 394.901 93.795C394.901 93.4356 388.636 93.3767 350.335 93.3767C325.823 93.3767 305.768 93.3137 305.768 93.2365C305.768 93.078 311.278 66.4936 311.524 65.4668L311.682 64.804H359.767C392.842 64.804 407.912 64.708 408.043 64.4968C408.245 64.1698 416.147 27.504 416.15 26.8789C416.151 26.5853 400.591 26.5107 339.326 26.5107H262.501L243.398 116.132ZM437.85 26.8683C437.777 27.0766 429.274 67.2784 418.953 116.205C408.631 165.132 400.116 205.4 400.03 205.689C399.879 206.193 401.895 206.211 447.34 206.118C490.307 206.031 495.171 205.974 498.644 205.512C510.684 203.914 522.191 201.414 528.773 198.967C536.264 196.182 545.907 190.474 552.95 184.655C557.238 181.113 563.691 174.535 567.363 169.963C575.431 159.917 579.724 151.861 584.236 138.298C587.768 127.683 590.8 114.787 592.061 105.012C593.195 96.226 593.331 83.2979 592.366 75.9975C590.583 62.4961 585.53 51.4615 577.462 43.4481C569.391 35.4307 559.641 30.6084 546.82 28.2931C537.636 26.6344 540.146 26.7057 487.054 26.5932C447.253 26.509 437.957 26.5611 437.85 26.8683ZM625.884 27.3208C625.799 27.6044 617.217 67.8012 606.812 116.647C596.407 165.493 587.826 205.69 587.742 205.974C587.597 206.465 591.411 206.487 666.024 206.416L744.459 206.342L748.671 186.312C750.987 175.295 752.889 166.182 752.896 166.06C752.904 165.939 730.663 165.839 703.473 165.839C664.12 165.839 654.037 165.764 654.038 165.471C654.039 165.269 655.678 157.349 657.682 147.871L661.324 130.639L706.026 130.565L750.729 130.49L754.525 112.596C756.613 102.754 758.381 94.4707 758.453 94.1877C758.578 93.6999 756.258 93.6692 713.896 93.5985L669.206 93.524L672.162 79.3122L675.117 65.1004L723.362 65.0258L771.606 64.9513L775.677 45.9519C777.916 35.5023 779.753 26.9196 779.758 26.8789C779.763 26.8383 745.178 26.8053 702.902 26.8053C629.953 26.8053 626.03 26.8315 625.884 27.3208ZM796 27.0074C796 27.1184 805.025 46.3054 816.056 69.6455C827.087 92.9852 836.151 112.221 836.2 112.391C836.248 112.56 817.527 133.666 794.598 159.291C771.67 184.917 752.909 205.953 752.909 206.039C752.909 206.125 767.287 206.185 784.859 206.173L816.808 206.152L841.01 177.474C854.32 161.701 865.278 148.789 865.359 148.78C865.44 148.772 871.005 161.752 877.725 177.627L889.944 206.489H922.071C939.74 206.489 954.197 206.408 954.197 206.31C954.197 206.211 944.361 185.336 932.339 159.92L910.482 113.711L947.583 71.2158C967.988 47.843 985.089 28.2893 985.584 27.7626L986.483 26.8053H955.17H923.857L902.243 54.2734C890.355 69.3807 880.539 81.7768 880.431 81.8201C880.322 81.8634 875.8 70.3312 870.381 56.193C864.962 42.0549 860.208 29.659 859.816 28.6463L859.104 26.8053H827.552C810.198 26.8053 796 26.8963 796 27.0074ZM487.158 67.4147C487.064 67.5676 482.471 89.345 476.953 115.809C471.435 142.273 466.85 164.223 466.765 164.588L466.61 165.25L477.462 165.247C489.024 165.244 493.372 165 498.78 164.05C504.386 163.065 507.923 161.663 511.925 158.838C515.813 156.094 520.419 151.052 523.001 146.713C526.37 141.055 529.761 131.232 532.264 119.887C534.585 109.364 535.393 103.16 535.402 95.8134C535.413 85.5263 533.752 80.2209 529.057 75.5488C526.414 72.919 523.697 71.3277 519.599 70.0099C514.357 68.3247 510.189 67.8401 498.939 67.6086C494.394 67.5149 489.922 67.3706 489.003 67.2878C488.083 67.2047 487.253 67.2619 487.158 67.4147Z" fill="white"/>
</g>
<defs>
<clipPath id="clip0_1_50">
<rect width="1033" height="233" fill="white"/>
</clipPath>
</defs>
</svg>
