<svg width="1034" height="233" viewBox="0 0 1034 233" fill="none" xmlns="http://www.w3.org/2000/svg">
<g clip-path="url(#clip0_1_49)">
<path fill-rule="evenodd" clip-rule="evenodd" d="M49.5143 0.121949C49.5143 0.188815 38.4908 52.4786 25.0175 116.321C11.5442 180.163 0.52063 232.533 0.52063 232.699C0.52063 232.904 158.533 233 495.47 233H990.419L990.568 232.337C990.882 230.952 1033.52 0.629777 1033.52 0.322547C1033.52 0.0889583 897.847 0 541.517 0C270.916 0 49.5143 0.0547889 49.5143 0.121949ZM157.389 23.1742C146.391 23.6149 137.408 24.7322 129.35 26.6616C122.467 28.3099 117.753 30.0261 110.756 33.4306C98.8156 39.2409 90.5156 46.382 83.4192 56.9504C77.7456 65.3994 74.7957 74.0875 74.4011 83.5088C73.9578 94.0908 76.9617 102.19 84.1361 109.756C92.9603 119.062 107.333 125.614 131.859 131.514C145.564 134.81 153.457 137.426 157.745 140.093C160.254 141.654 162.231 143.902 163.545 146.688C165.974 151.84 164.24 158.887 159.223 164.249C153.586 170.273 146.578 173.089 136.434 173.407C130.903 173.58 126.981 173.097 123.115 171.767C119.677 170.585 117.629 169.302 115.017 166.695C113.216 164.897 112.511 163.914 111.427 161.688C110.685 160.164 109.868 158.035 109.61 156.957C108.935 154.136 108.513 148.728 108.733 145.735L108.923 143.158H108.119C106.75 143.158 53.5368 146.409 53.4474 146.498C53.2511 146.694 52.7656 153.551 52.7636 156.161C52.7583 161.936 53.7978 168.807 55.4529 173.94C56.6364 177.61 60.0377 184.289 62.4248 187.63C64.9739 191.198 69.9828 196.267 72.8351 198.164C84.4168 205.867 101.503 209.441 126.842 209.461C142.543 209.473 154.085 208.043 166.114 204.598C176.671 201.574 185.711 197.084 194.577 190.463C201.575 185.236 209.544 176.497 214.076 169.08C221.91 156.258 225.219 140.714 222.742 128.374C221.149 120.437 217.897 114.424 212.275 109.02C202.339 99.4686 187.052 93.4141 153.405 85.7045C138.881 82.3768 133.747 80.3005 131.44 76.8222C129.977 74.6168 129.638 72.7811 130.226 70.252C131.368 65.3337 134.246 61.9297 139.385 59.4156C143.516 57.3952 147.624 56.5557 153.37 56.5574C168.498 56.5621 175.454 62.624 176.309 76.5459L176.514 79.8925L180.233 79.6963C182.278 79.5885 187.339 79.3116 191.478 79.0807C195.617 78.85 204.051 78.3926 210.22 78.0638C225.239 77.2638 230.798 76.913 230.956 76.7557C231.297 76.4155 231.362 67.7989 231.048 64.5095C229.486 48.1282 222.733 37.779 209.239 31.085C197.038 25.0326 179.145 22.3026 157.389 23.1742ZM243.919 116.132C233.413 165.424 224.819 205.852 224.823 205.974C224.83 206.232 381.55 206.279 381.55 206.021C381.55 205.925 383.414 196.944 385.692 186.064C387.971 175.184 389.863 166.082 389.898 165.839C389.954 165.449 384.241 165.381 340.499 165.25L291.037 165.103L294.08 150.669C295.753 142.731 297.409 134.877 297.76 133.216L298.397 130.197H343.053C385.327 130.197 387.716 130.17 387.86 129.682C388.163 128.649 395.422 94.2012 395.422 93.795C395.422 93.4357 389.157 93.3767 350.855 93.3767C326.344 93.3767 306.289 93.3137 306.289 93.2365C306.289 93.078 311.799 66.4937 312.044 65.4668L312.203 64.804H360.288C393.363 64.804 408.433 64.708 408.564 64.4968C408.766 64.1698 416.668 27.504 416.67 26.8789C416.672 26.5853 401.111 26.5107 339.847 26.5107H263.022L243.919 116.132ZM438.371 26.8683C438.298 27.0766 429.794 67.2784 419.473 116.205C409.152 165.132 400.637 205.4 400.55 205.689C400.4 206.193 402.415 206.211 447.86 206.118C490.827 206.031 495.692 205.974 499.164 205.512C511.204 203.914 522.712 201.414 529.293 198.967C536.785 196.182 546.427 190.474 553.471 184.655C557.759 181.113 564.211 174.535 567.883 169.963C575.952 159.917 580.245 151.861 584.757 138.298C588.289 127.683 591.32 114.787 592.582 105.012C593.716 96.2261 593.852 83.2979 592.887 75.9975C591.103 62.4961 586.05 51.4615 577.983 43.4482C569.912 35.4307 560.162 30.6084 547.341 28.2932C538.156 26.6345 540.667 26.7057 487.575 26.5932C447.774 26.509 438.478 26.5611 438.371 26.8683ZM626.405 27.3208C626.32 27.6045 617.738 67.8012 607.333 116.647C596.928 165.493 588.346 205.69 588.263 205.974C588.117 206.465 591.932 206.487 666.545 206.416L744.98 206.342L749.191 186.312C751.508 175.295 753.409 166.182 753.417 166.06C753.424 165.939 731.184 165.839 703.994 165.839C664.64 165.839 654.557 165.764 654.559 165.471C654.559 165.269 656.199 157.349 658.202 147.871L661.845 130.639L706.547 130.565L751.249 130.49L755.046 112.596C757.134 102.754 758.901 94.4707 758.974 94.1877C759.099 93.6999 756.779 93.6692 714.417 93.5985L669.727 93.524L672.683 79.3122L675.638 65.1004L723.882 65.0259L772.127 64.9513L776.198 45.952C778.437 35.5023 780.273 26.9196 780.279 26.8789C780.284 26.8383 745.699 26.8053 703.423 26.8053C630.474 26.8053 626.551 26.8315 626.405 27.3208ZM796.521 27.0074C796.521 27.1184 805.546 46.3054 816.577 69.6455C827.608 92.9853 836.672 112.221 836.72 112.391C836.769 112.561 818.048 133.666 795.119 159.291C772.19 184.917 753.43 205.953 753.43 206.039C753.43 206.125 767.807 206.185 785.379 206.173L817.328 206.152L841.53 177.474C854.841 161.701 865.798 148.789 865.879 148.78C865.961 148.772 871.526 161.752 878.246 177.627L890.465 206.489H922.591C940.26 206.489 954.717 206.408 954.717 206.31C954.717 206.211 944.882 185.336 932.86 159.92L911.003 113.711L948.104 71.2158C968.509 47.8431 985.609 28.2893 986.104 27.7626L987.004 26.8053H955.691H924.378L902.763 54.2734C890.875 69.3807 881.06 81.7768 880.952 81.8201C880.843 81.8634 876.321 70.3312 870.902 56.1931C865.483 42.0549 860.728 29.659 860.336 28.6463L859.624 26.8053H828.073C810.719 26.8053 796.521 26.8963 796.521 27.0074ZM487.679 67.4148C487.584 67.5676 482.992 89.345 477.474 115.809C471.955 142.273 467.371 164.223 467.285 164.588L467.13 165.25L477.982 165.247C489.545 165.244 493.893 165 499.301 164.05C504.907 163.065 508.444 161.663 512.446 158.838C516.334 156.094 520.939 151.052 523.522 146.713C526.89 141.055 530.282 131.232 532.784 119.887C535.106 109.364 535.914 103.16 535.922 95.8134C535.934 85.5263 534.273 80.2209 529.578 75.5488C526.935 72.919 524.218 71.3277 520.12 70.0099C514.878 68.3247 510.71 67.8401 499.46 67.6086C494.914 67.5149 490.443 67.3706 489.523 67.2878C488.603 67.2047 487.773 67.2619 487.679 67.4148Z" fill="white"/>
<path fill-rule="evenodd" clip-rule="evenodd" d="M157.389 23.1742C146.391 23.6149 137.408 24.7322 129.35 26.6615C122.467 28.3099 117.753 30.0261 110.756 33.4306C98.8156 39.2409 90.5156 46.382 83.4192 56.9504C77.7456 65.3993 74.7957 74.0875 74.4011 83.5088C73.9578 94.0907 76.9617 102.19 84.1361 109.756C92.9603 119.062 107.333 125.614 131.859 131.514C145.564 134.81 153.457 137.426 157.745 140.093C160.254 141.654 162.231 143.902 163.545 146.688C165.974 151.84 164.24 158.887 159.223 164.249C153.586 170.273 146.578 173.089 136.434 173.407C130.903 173.58 126.981 173.097 123.115 171.767C119.677 170.585 117.629 169.302 115.017 166.695C113.216 164.897 112.511 163.914 111.427 161.688C110.685 160.164 109.868 158.035 109.61 156.957C108.935 154.136 108.513 148.728 108.733 145.735L108.923 143.158H108.119C106.75 143.158 53.5368 146.409 53.4474 146.498C53.2511 146.694 52.7656 153.551 52.7636 156.161C52.7583 161.936 53.7978 168.807 55.4529 173.94C56.6364 177.61 60.0377 184.289 62.4248 187.63C64.9739 191.198 69.9828 196.267 72.8351 198.164C84.4168 205.867 101.503 209.441 126.842 209.46C142.543 209.473 154.085 208.043 166.114 204.598C176.671 201.574 185.711 197.084 194.577 190.463C201.575 185.236 209.544 176.497 214.076 169.08C221.91 156.258 225.219 140.714 222.742 128.374C221.149 120.437 217.897 114.424 212.275 109.02C202.339 99.4686 187.052 93.4141 153.405 85.7045C138.881 82.3768 133.747 80.3004 131.44 76.8222C129.977 74.6168 129.638 72.7811 130.226 70.252C131.368 65.3337 134.246 61.9297 139.385 59.4156C143.516 57.3952 147.624 56.5556 153.369 56.5574C168.498 56.5621 175.454 62.624 176.309 76.5459L176.514 79.8925L180.233 79.6963C182.278 79.5885 187.339 79.3116 191.478 79.0807C195.617 78.85 204.051 78.3926 210.22 78.0638C225.239 77.2638 230.798 76.913 230.956 76.7557C231.297 76.4154 231.362 67.7989 231.048 64.5095C229.486 48.1282 222.733 37.779 209.239 31.085C197.038 25.0326 179.145 22.3026 157.389 23.1742ZM243.919 116.132C233.413 165.423 224.819 205.852 224.823 205.974C224.83 206.232 381.55 206.279 381.55 206.021C381.55 205.925 383.414 196.944 385.692 186.064C387.971 175.184 389.863 166.082 389.898 165.839C389.954 165.449 384.241 165.38 340.499 165.25L291.037 165.103L294.08 150.669C295.754 142.731 297.409 134.877 297.76 133.216L298.397 130.197H343.053C385.327 130.197 387.716 130.17 387.86 129.682C388.163 128.649 395.422 94.2012 395.422 93.795C395.422 93.4356 389.157 93.3767 350.855 93.3767C326.344 93.3767 306.289 93.3137 306.289 93.2365C306.289 93.078 311.799 66.4936 312.044 65.4668L312.203 64.804H360.288C393.363 64.804 408.433 64.708 408.564 64.4968C408.766 64.1698 416.668 27.504 416.67 26.8789C416.672 26.5853 401.111 26.5107 339.847 26.5107H263.022L243.919 116.132ZM438.371 26.8683C438.298 27.0766 429.794 67.2784 419.473 116.205C409.152 165.132 400.637 205.4 400.55 205.689C400.4 206.193 402.415 206.211 447.86 206.118C490.827 206.031 495.692 205.974 499.164 205.512C511.204 203.914 522.712 201.414 529.293 198.967C536.785 196.182 546.427 190.474 553.471 184.655C557.759 181.113 564.211 174.535 567.883 169.963C575.952 159.917 580.245 151.861 584.757 138.298C588.289 127.683 591.32 114.787 592.582 105.012C593.716 96.226 593.852 83.2979 592.887 75.9975C591.103 62.4961 586.05 51.4615 577.983 43.4481C569.912 35.4307 560.162 30.6084 547.341 28.2931C538.156 26.6344 540.667 26.7057 487.575 26.5932C447.774 26.509 438.478 26.5611 438.371 26.8683ZM626.405 27.3208C626.32 27.6044 617.738 67.8012 607.333 116.647C596.928 165.493 588.346 205.69 588.263 205.974C588.117 206.465 591.932 206.487 666.545 206.416L744.979 206.342L749.191 186.312C751.508 175.295 753.409 166.182 753.417 166.06C753.424 165.939 731.184 165.839 703.994 165.839C664.64 165.839 654.557 165.764 654.559 165.471C654.559 165.269 656.199 157.349 658.202 147.871L661.845 130.639L706.547 130.565L751.249 130.49L755.046 112.596C757.134 102.754 758.901 94.4707 758.974 94.1877C759.099 93.6999 756.779 93.6692 714.417 93.5985L669.727 93.524L672.683 79.3122L675.638 65.1004L723.882 65.0258L772.127 64.9513L776.198 45.9519C778.437 35.5023 780.273 26.9196 780.279 26.8789C780.284 26.8383 745.699 26.8053 703.423 26.8053C630.474 26.8053 626.551 26.8315 626.405 27.3208ZM796.521 27.0074C796.521 27.1184 805.546 46.3054 816.577 69.6455C827.608 92.9852 836.672 112.221 836.72 112.391C836.769 112.56 818.048 133.666 795.119 159.291C772.19 184.917 753.43 205.953 753.43 206.039C753.43 206.125 767.807 206.185 785.379 206.173L817.328 206.152L841.53 177.474C854.841 161.701 865.798 148.789 865.879 148.78C865.961 148.772 871.526 161.752 878.246 177.627L890.465 206.489H922.591C940.26 206.489 954.717 206.408 954.717 206.31C954.717 206.211 944.882 185.336 932.86 159.92L911.003 113.711L948.104 71.2158C968.509 47.843 985.609 28.2893 986.104 27.7626L987.004 26.8053H955.691H924.378L902.763 54.2734C890.875 69.3807 881.06 81.7768 880.951 81.8201C880.843 81.8634 876.32 70.3312 870.902 56.193C865.483 42.0549 860.728 29.659 860.336 28.6463L859.624 26.8053H828.073C810.719 26.8053 796.521 26.8963 796.521 27.0074ZM487.679 67.4147C487.584 67.5676 482.992 89.345 477.474 115.809C471.955 142.273 467.371 164.223 467.285 164.588L467.13 165.25L477.982 165.247C489.545 165.244 493.893 165 499.301 164.05C504.907 163.065 508.444 161.663 512.446 158.838C516.334 156.094 520.939 151.052 523.522 146.713C526.89 141.055 530.282 131.232 532.784 119.887C535.106 109.364 535.914 103.16 535.922 95.8134C535.934 85.5263 534.273 80.2209 529.578 75.5488C526.935 72.919 524.218 71.3277 520.12 70.0099C514.878 68.3247 510.71 67.8401 499.46 67.6086C494.914 67.5149 490.443 67.3706 489.523 67.2878C488.603 67.2047 487.773 67.2619 487.679 67.4147Z" fill="black"/>
</g>
<defs>
<clipPath id="clip0_1_49">
<rect width="1033" height="233" fill="white" transform="translate(0.52063)"/>
</clipPath>
</defs>
</svg>
